<svg xmlns="http://www.w3.org/2000/svg" version="1.1" xmlns:xlink="http://www.w3.org/1999/xlink" xmlns:svgjs="http://svgjs.dev/svgjs" width="1440" height="560" preserveAspectRatio="none" viewBox="0 0 1440 560"><g mask="url(&quot;#SvgjsMask1000&quot;)" fill="none"><rect width="1440" height="560" x="0" y="0" fill="#0e2a47"></rect><path d="M-38.21 382.77L-38.21 382.77" stroke="#132e65" stroke-width="1.5"></path><path d="M-38.21 382.77L50.34 404.96" stroke="#132e65" stroke-width="1.5"></path><path d="M-38.21 382.77L-75.55 554.72" stroke="#132e65" stroke-width="1.5"></path><path d="M-38.21 382.77L90.86 517.12" stroke="#132e65" stroke-width="1.5"></path><path d="M-38.21 382.77L212.29 356.92" stroke="#132e65" stroke-width="1.5"></path><path d="M-38.21 382.77L209.46 495.75" stroke="#132e65" stroke-width="1.5"></path><path d="M-38.21 382.77L96.34 648.38" stroke="#132e65" stroke-width="1.5"></path><path d="M-75.55 554.72L-75.55 554.72" stroke="#132e65" stroke-width="1.5"></path><path d="M-75.55 554.72L-85.56 679.18" stroke="#132e65" stroke-width="1.5"></path><path d="M-75.55 554.72L90.86 517.12" stroke="#132e65" stroke-width="1.5"></path><path d="M-85.56 679.18L-85.56 679.18" stroke="#132e65" stroke-width="1.5"></path><path d="M50.34 404.96L50.34 404.96" stroke="#132e65" stroke-width="1.5"></path><path d="M50.34 404.96L90.86 517.12" stroke="#132e65" stroke-width="1.5"></path><path d="M50.34 404.96L212.29 356.92" stroke="#132e65" stroke-width="1.5"></path><path d="M50.34 404.96L209.46 495.75" stroke="#132e65" stroke-width="1.5"></path><path d="M90.86 517.12L90.86 517.12" stroke="#132e65" stroke-width="1.5"></path><path d="M90.86 517.12L209.46 495.75" stroke="#132e65" stroke-width="1.5"></path><path d="M90.86 517.12L96.34 648.38" stroke="#132e65" stroke-width="1.5"></path><path d="M90.86 517.12L190.58 660.28" stroke="#132e65" stroke-width="1.5"></path><path d="M96.34 648.38L96.34 648.38" stroke="#132e65" stroke-width="1.5"></path><path d="M96.34 648.38L190.58 660.28" stroke="#132e65" stroke-width="1.5"></path><path d="M96.34 648.38L-85.56 679.18" stroke="#132e65" stroke-width="1.5"></path><path d="M212.29 356.92L212.29 356.92" stroke="#132e65" stroke-width="1.5"></path><path d="M212.29 356.92L209.46 495.75" stroke="#132e65" stroke-width="1.5"></path><path d="M212.29 356.92L373.72 352.54" stroke="#132e65" stroke-width="1.5"></path><path d="M212.29 356.92L90.86 517.12" stroke="#132e65" stroke-width="1.5"></path><path d="M212.29 356.92L354.73 528.73" stroke="#132e65" stroke-width="1.5"></path><path d="M209.46 495.75L209.46 495.75" stroke="#132e65" stroke-width="1.5"></path><path d="M209.46 495.75L354.73 528.73" stroke="#132e65" stroke-width="1.5"></path><path d="M190.58 660.28L190.58 660.28" stroke="#132e65" stroke-width="1.5"></path><path d="M190.58 660.28L209.46 495.75" stroke="#132e65" stroke-width="1.5"></path><path d="M190.58 660.28L373.09 700.85" stroke="#132e65" stroke-width="1.5"></path><path d="M190.58 660.28L354.73 528.73" stroke="#132e65" stroke-width="1.5"></path><path d="M190.58 660.28L-85.56 679.18" stroke="#132e65" stroke-width="1.5"></path><path d="M373.72 352.54L373.72 352.54" stroke="#132e65" stroke-width="1.5"></path><path d="M373.72 352.54L542.08 379.57" stroke="#132e65" stroke-width="1.5"></path><path d="M373.72 352.54L354.73 528.73" stroke="#132e65" stroke-width="1.5"></path><path d="M373.72 352.54L209.46 495.75" stroke="#132e65" stroke-width="1.5"></path><path d="M373.72 352.54L497.08 555.08" stroke="#132e65" stroke-width="1.5"></path><path d="M373.72 352.54L675.75 343.73" stroke="#132e65" stroke-width="1.5"></path><path d="M354.73 528.73L354.73 528.73" stroke="#132e65" stroke-width="1.5"></path><path d="M354.73 528.73L497.08 555.08" stroke="#132e65" stroke-width="1.5"></path><path d="M354.73 528.73L373.09 700.85" stroke="#132e65" stroke-width="1.5"></path><path d="M373.09 700.85L373.09 700.85" stroke="#132e65" stroke-width="1.5"></path><path d="M373.09 700.85L561.07 708.44" stroke="#132e65" stroke-width="1.5"></path><path d="M542.08 379.57L542.08 379.57" stroke="#132e65" stroke-width="1.5"></path><path d="M542.08 379.57L675.75 343.73" stroke="#132e65" stroke-width="1.5"></path><path d="M542.08 379.57L497.08 555.08" stroke="#132e65" stroke-width="1.5"></path><path d="M497.08 555.08L497.08 555.08" stroke="#132e65" stroke-width="1.5"></path><path d="M497.08 555.08L561.07 708.44" stroke="#132e65" stroke-width="1.5"></path><path d="M497.08 555.08L373.09 700.85" stroke="#132e65" stroke-width="1.5"></path><path d="M497.08 555.08L694.54 670.68" stroke="#132e65" stroke-width="1.5"></path><path d="M561.07 708.44L561.07 708.44" stroke="#132e65" stroke-width="1.5"></path><path d="M561.07 708.44L694.54 670.68" stroke="#132e65" stroke-width="1.5"></path><path d="M685.4 245.84L685.4 245.84" stroke="#132e65" stroke-width="1.5"></path><path d="M685.4 245.84L675.75 343.73" stroke="#132e65" stroke-width="1.5"></path><path d="M685.4 245.84L842.33 259.92" stroke="#132e65" stroke-width="1.5"></path><path d="M675.75 343.73L675.75 343.73" stroke="#132e65" stroke-width="1.5"></path><path d="M675.75 343.73L842.33 259.92" stroke="#132e65" stroke-width="1.5"></path><path d="M694.54 670.68L694.54 670.68" stroke="#132e65" stroke-width="1.5"></path><path d="M694.54 670.68L828.35 673.89" stroke="#132e65" stroke-width="1.5"></path><path d="M694.54 670.68L857.75 528.96" stroke="#132e65" stroke-width="1.5"></path><path d="M842.33 259.92L842.33 259.92" stroke="#132e65" stroke-width="1.5"></path><path d="M842.33 259.92L953.55 257.98" stroke="#132e65" stroke-width="1.5"></path><path d="M842.33 259.92L859.7 388.11" stroke="#132e65" stroke-width="1.5"></path><path d="M859.7 388.11L859.7 388.11" stroke="#132e65" stroke-width="1.5"></path><path d="M859.7 388.11L982.33 375.25" stroke="#132e65" stroke-width="1.5"></path><path d="M857.75 528.96L857.75 528.96" stroke="#132e65" stroke-width="1.5"></path><path d="M857.75 528.96L859.7 388.11" stroke="#132e65" stroke-width="1.5"></path><path d="M857.75 528.96L999.15 532.54" stroke="#132e65" stroke-width="1.5"></path><path d="M857.75 528.96L828.35 673.89" stroke="#132e65" stroke-width="1.5"></path><path d="M857.75 528.96L982.33 375.25" stroke="#132e65" stroke-width="1.5"></path><path d="M857.75 528.96L962.56 696.94" stroke="#132e65" stroke-width="1.5"></path><path d="M828.35 673.89L828.35 673.89" stroke="#132e65" stroke-width="1.5"></path><path d="M828.35 673.89L962.56 696.94" stroke="#132e65" stroke-width="1.5"></path><path d="M942.81 -78.81L942.81 -78.81" stroke="#132e65" stroke-width="1.5"></path><path d="M942.81 -78.81L1102.57 -48.79" stroke="#132e65" stroke-width="1.5"></path><path d="M942.81 -78.81L1011.59 84.61" stroke="#132e65" stroke-width="1.5"></path><path d="M942.81 -78.81L1141.5 102.43" stroke="#132e65" stroke-width="1.5"></path><path d="M942.81 -78.81L1237.5 -40.64" stroke="#132e65" stroke-width="1.5"></path><path d="M942.81 -78.81L953.55 257.98" stroke="#132e65" stroke-width="1.5"></path><path d="M1011.59 84.61L1011.59 84.61" stroke="#132e65" stroke-width="1.5"></path><path d="M1011.59 84.61L1141.5 102.43" stroke="#132e65" stroke-width="1.5"></path><path d="M1011.59 84.61L1102.57 -48.79" stroke="#132e65" stroke-width="1.5"></path><path d="M1011.59 84.61L1106.91 219.47" stroke="#132e65" stroke-width="1.5"></path><path d="M1011.59 84.61L953.55 257.98" stroke="#132e65" stroke-width="1.5"></path><path d="M953.55 257.98L953.55 257.98" stroke="#132e65" stroke-width="1.5"></path><path d="M953.55 257.98L982.33 375.25" stroke="#132e65" stroke-width="1.5"></path><path d="M953.55 257.98L1106.91 219.47" stroke="#132e65" stroke-width="1.5"></path><path d="M953.55 257.98L859.7 388.11" stroke="#132e65" stroke-width="1.5"></path><path d="M953.55 257.98L1155.76 372.39" stroke="#132e65" stroke-width="1.5"></path><path d="M982.33 375.25L982.33 375.25" stroke="#132e65" stroke-width="1.5"></path><path d="M982.33 375.25L999.15 532.54" stroke="#132e65" stroke-width="1.5"></path><path d="M982.33 375.25L1155.76 372.39" stroke="#132e65" stroke-width="1.5"></path><path d="M999.15 532.54L999.15 532.54" stroke="#132e65" stroke-width="1.5"></path><path d="M999.15 532.54L1152.33 491.57" stroke="#132e65" stroke-width="1.5"></path><path d="M999.15 532.54L962.56 696.94" stroke="#132e65" stroke-width="1.5"></path><path d="M999.15 532.54L1129.43 664.53" stroke="#132e65" stroke-width="1.5"></path><path d="M962.56 696.94L962.56 696.94" stroke="#132e65" stroke-width="1.5"></path><path d="M962.56 696.94L1129.43 664.53" stroke="#132e65" stroke-width="1.5"></path><path d="M962.56 696.94L694.54 670.68" stroke="#132e65" stroke-width="1.5"></path><path d="M962.56 696.94L1152.33 491.57" stroke="#132e65" stroke-width="1.5"></path><path d="M1102.57 -48.79L1102.57 -48.79" stroke="#132e65" stroke-width="1.5"></path><path d="M1102.57 -48.79L1237.5 -40.64" stroke="#132e65" stroke-width="1.5"></path><path d="M1102.57 -48.79L1141.5 102.43" stroke="#132e65" stroke-width="1.5"></path><path d="M1102.57 -48.79L1277.63 70.42" stroke="#132e65" stroke-width="1.5"></path><path d="M1141.5 102.43L1141.5 102.43" stroke="#132e65" stroke-width="1.5"></path><path d="M1141.5 102.43L1106.91 219.47" stroke="#132e65" stroke-width="1.5"></path><path d="M1141.5 102.43L1277.63 70.42" stroke="#132e65" stroke-width="1.5"></path><path d="M1141.5 102.43L1274.8 197.33" stroke="#132e65" stroke-width="1.5"></path><path d="M1106.91 219.47L1106.91 219.47" stroke="#132e65" stroke-width="1.5"></path><path d="M1106.91 219.47L1155.76 372.39" stroke="#132e65" stroke-width="1.5"></path><path d="M1106.91 219.47L1274.8 197.33" stroke="#132e65" stroke-width="1.5"></path><path d="M1155.76 372.39L1155.76 372.39" stroke="#132e65" stroke-width="1.5"></path><path d="M1155.76 372.39L1241.46 370.63" stroke="#132e65" stroke-width="1.5"></path><path d="M1155.76 372.39L1152.33 491.57" stroke="#132e65" stroke-width="1.5"></path><path d="M1155.76 372.39L1241.16 518.4" stroke="#132e65" stroke-width="1.5"></path><path d="M1152.33 491.57L1152.33 491.57" stroke="#132e65" stroke-width="1.5"></path><path d="M1152.33 491.57L1241.16 518.4" stroke="#132e65" stroke-width="1.5"></path><path d="M1152.33 491.57L1241.46 370.63" stroke="#132e65" stroke-width="1.5"></path><path d="M1152.33 491.57L1129.43 664.53" stroke="#132e65" stroke-width="1.5"></path><path d="M1152.33 491.57L982.33 375.25" stroke="#132e65" stroke-width="1.5"></path><path d="M1129.43 664.53L1129.43 664.53" stroke="#132e65" stroke-width="1.5"></path><path d="M1129.43 664.53L1294.2 678.22" stroke="#132e65" stroke-width="1.5"></path><path d="M1129.43 664.53L1241.16 518.4" stroke="#132e65" stroke-width="1.5"></path><path d="M1129.43 664.53L1155.76 372.39" stroke="#132e65" stroke-width="1.5"></path><path d="M1237.5 -40.64L1237.5 -40.64" stroke="#132e65" stroke-width="1.5"></path><path d="M1237.5 -40.64L1277.63 70.42" stroke="#132e65" stroke-width="1.5"></path><path d="M1237.5 -40.64L1396.07 -43.91" stroke="#132e65" stroke-width="1.5"></path><path d="M1237.5 -40.64L1141.5 102.43" stroke="#132e65" stroke-width="1.5"></path><path d="M1277.63 70.42L1277.63 70.42" stroke="#132e65" stroke-width="1.5"></path><path d="M1277.63 70.42L1274.8 197.33" stroke="#132e65" stroke-width="1.5"></path><path d="M1277.63 70.42L1409.02 38.82" stroke="#132e65" stroke-width="1.5"></path><path d="M1274.8 197.33L1274.8 197.33" stroke="#132e65" stroke-width="1.5"></path><path d="M1274.8 197.33L1439.88 248.22" stroke="#132e65" stroke-width="1.5"></path><path d="M1274.8 197.33L1241.46 370.63" stroke="#132e65" stroke-width="1.5"></path><path d="M1241.46 370.63L1241.46 370.63" stroke="#132e65" stroke-width="1.5"></path><path d="M1241.46 370.63L1241.16 518.4" stroke="#132e65" stroke-width="1.5"></path><path d="M1241.16 518.4L1241.16 518.4" stroke="#132e65" stroke-width="1.5"></path><path d="M1241.16 518.4L1294.2 678.22" stroke="#132e65" stroke-width="1.5"></path><path d="M1294.2 678.22L1294.2 678.22" stroke="#132e65" stroke-width="1.5"></path><path d="M1294.2 678.22L1459.1 686.55" stroke="#132e65" stroke-width="1.5"></path><path d="M1294.2 678.22L1423.29 539.14" stroke="#132e65" stroke-width="1.5"></path><path d="M1396.07 -43.91L1396.07 -43.91" stroke="#132e65" stroke-width="1.5"></path><path d="M1396.07 -43.91L1409.02 38.82" stroke="#132e65" stroke-width="1.5"></path><path d="M1396.07 -43.91L1545.81 -74.86" stroke="#132e65" stroke-width="1.5"></path><path d="M1409.02 38.82L1409.02 38.82" stroke="#132e65" stroke-width="1.5"></path><path d="M1409.02 38.82L1545.81 -74.86" stroke="#132e65" stroke-width="1.5"></path><path d="M1439.88 248.22L1439.88 248.22" stroke="#132e65" stroke-width="1.5"></path><path d="M1439.88 248.22L1557.34 232.7" stroke="#132e65" stroke-width="1.5"></path><path d="M1439.88 248.22L1404.47 365.11" stroke="#132e65" stroke-width="1.5"></path><path d="M1439.88 248.22L1573.26 347.28" stroke="#132e65" stroke-width="1.5"></path><path d="M1404.47 365.11L1404.47 365.11" stroke="#132e65" stroke-width="1.5"></path><path d="M1404.47 365.11L1241.46 370.63" stroke="#132e65" stroke-width="1.5"></path><path d="M1404.47 365.11L1573.26 347.28" stroke="#132e65" stroke-width="1.5"></path><path d="M1423.29 539.14L1423.29 539.14" stroke="#132e65" stroke-width="1.5"></path><path d="M1423.29 539.14L1459.1 686.55" stroke="#132e65" stroke-width="1.5"></path><path d="M1423.29 539.14L1404.47 365.11" stroke="#132e65" stroke-width="1.5"></path><path d="M1459.1 686.55L1459.1 686.55" stroke="#132e65" stroke-width="1.5"></path><path d="M1459.1 686.55L1610.87 710.78" stroke="#132e65" stroke-width="1.5"></path><path d="M1459.1 686.55L1611.52 533.48" stroke="#132e65" stroke-width="1.5"></path><path d="M1459.1 686.55L1241.16 518.4" stroke="#132e65" stroke-width="1.5"></path><path d="M1459.1 686.55L1404.47 365.11" stroke="#132e65" stroke-width="1.5"></path><path d="M1545.81 -74.86L1545.81 -74.86" stroke="#132e65" stroke-width="1.5"></path><path d="M1545.81 -74.86L1601.47 67.9" stroke="#132e65" stroke-width="1.5"></path><path d="M1601.47 67.9L1601.47 67.9" stroke="#132e65" stroke-width="1.5"></path><path d="M1601.47 67.9L1557.34 232.7" stroke="#132e65" stroke-width="1.5"></path><path d="M1601.47 67.9L1409.02 38.82" stroke="#132e65" stroke-width="1.5"></path><path d="M1601.47 67.9L1396.07 -43.91" stroke="#132e65" stroke-width="1.5"></path><path d="M1557.34 232.7L1557.34 232.7" stroke="#132e65" stroke-width="1.5"></path><path d="M1557.34 232.7L1573.26 347.28" stroke="#132e65" stroke-width="1.5"></path><path d="M1573.26 347.28L1573.26 347.28" stroke="#132e65" stroke-width="1.5"></path><path d="M1611.52 533.48L1611.52 533.48" stroke="#132e65" stroke-width="1.5"></path><path d="M1611.52 533.48L1610.87 710.78" stroke="#132e65" stroke-width="1.5"></path><path d="M1610.87 710.78L1610.87 710.78" stroke="#132e65" stroke-width="1.5"></path><path d="M1610.87 710.78L1423.29 539.14" stroke="#132e65" stroke-width="1.5"></path><path d="M1610.87 710.78L1294.2 678.22" stroke="#132e65" stroke-width="1.5"></path><path d="M1610.87 710.78L1573.26 347.28" stroke="#132e65" stroke-width="1.5"></path><path d="M1610.87 710.78L1404.47 365.11" stroke="#132e65" stroke-width="1.5"></path><circle r="5" cx="-38.21" cy="382.77" fill="#132e65"></circle><circle r="5" cx="-75.55" cy="554.72" fill="#132e65"></circle><circle r="5" cx="-85.56" cy="679.18" fill="#132e65"></circle><circle r="5" cx="50.34" cy="404.96" fill="#132e65"></circle><circle r="5" cx="90.86" cy="517.12" fill="#132e65"></circle><circle r="5" cx="96.34" cy="648.38" fill="#132e65"></circle><circle r="5" cx="212.29" cy="356.92" fill="#132e65"></circle><circle r="5" cx="209.46" cy="495.75" fill="#132e65"></circle><circle r="5" cx="190.58" cy="660.28" fill="#132e65"></circle><circle r="5" cx="373.72" cy="352.54" fill="#132e65"></circle><circle r="5" cx="354.73" cy="528.73" fill="#132e65"></circle><circle r="5" cx="373.09" cy="700.85" fill="#132e65"></circle><circle r="5" cx="542.08" cy="379.57" fill="#132e65"></circle><circle r="5" cx="497.08" cy="555.08" fill="#132e65"></circle><circle r="5" cx="561.07" cy="708.44" fill="#132e65"></circle><circle r="5" cx="685.4" cy="245.84" fill="#132e65"></circle><circle r="5" cx="675.75" cy="343.73" fill="#132e65"></circle><circle r="5" cx="694.54" cy="670.68" fill="#132e65"></circle><circle r="5" cx="842.33" cy="259.92" fill="#132e65"></circle><circle r="5" cx="859.7" cy="388.11" fill="#132e65"></circle><circle r="5" cx="857.75" cy="528.96" fill="#132e65"></circle><circle r="5" cx="828.35" cy="673.89" fill="#132e65"></circle><circle r="5" cx="942.81" cy="-78.81" fill="#132e65"></circle><circle r="5" cx="1011.59" cy="84.61" fill="#132e65"></circle><circle r="5" cx="953.55" cy="257.98" fill="#132e65"></circle><circle r="5" cx="982.33" cy="375.25" fill="#132e65"></circle><circle r="5" cx="999.15" cy="532.54" fill="#132e65"></circle><circle r="5" cx="962.56" cy="696.94" fill="#132e65"></circle><circle r="5" cx="1102.57" cy="-48.79" fill="#132e65"></circle><circle r="5" cx="1141.5" cy="102.43" fill="#132e65"></circle><circle r="5" cx="1106.91" cy="219.47" fill="#132e65"></circle><circle r="5" cx="1155.76" cy="372.39" fill="#132e65"></circle><circle r="5" cx="1152.33" cy="491.57" fill="#132e65"></circle><circle r="5" cx="1129.43" cy="664.53" fill="#132e65"></circle><circle r="5" cx="1237.5" cy="-40.64" fill="#132e65"></circle><circle r="5" cx="1277.63" cy="70.42" fill="#132e65"></circle><circle r="5" cx="1274.8" cy="197.33" fill="#132e65"></circle><circle r="5" cx="1241.46" cy="370.63" fill="#132e65"></circle><circle r="5" cx="1241.16" cy="518.4" fill="#132e65"></circle><circle r="5" cx="1294.2" cy="678.22" fill="#132e65"></circle><circle r="5" cx="1396.07" cy="-43.91" fill="#132e65"></circle><circle r="5" cx="1409.02" cy="38.82" fill="#132e65"></circle><circle r="5" cx="1439.88" cy="248.22" fill="#132e65"></circle><circle r="5" cx="1404.47" cy="365.11" fill="#132e65"></circle><circle r="5" cx="1423.29" cy="539.14" fill="#132e65"></circle><circle r="5" cx="1459.1" cy="686.55" fill="#132e65"></circle><circle r="5" cx="1545.81" cy="-74.86" fill="#132e65"></circle><circle r="5" cx="1601.47" cy="67.9" fill="#132e65"></circle><circle r="5" cx="1557.34" cy="232.7" fill="#132e65"></circle><circle r="5" cx="1573.26" cy="347.28" fill="#132e65"></circle><circle r="5" cx="1611.52" cy="533.48" fill="#132e65"></circle><circle r="5" cx="1610.87" cy="710.78" fill="#132e65"></circle><path d="M89.43 497.25L89.43 497.25" stroke="hsl(228.5, 77.2%, 51.5%)" stroke-width="1.5"></path><path d="M89.43 497.25L-39.56 505.72" stroke="hsl(228.5, 77.2%, 51.5%)" stroke-width="1.5"></path><path d="M89.43 497.25L209.12 562.26" stroke="hsl(228.5, 77.2%, 51.5%)" stroke-width="1.5"></path><path d="M89.43 497.25L65.15 709.51" stroke="hsl(228.5, 77.2%, 51.5%)" stroke-width="1.5"></path><path d="M89.43 497.25L246.15 682.84" stroke="hsl(228.5, 77.2%, 51.5%)" stroke-width="1.5"></path><path d="M89.43 497.25L-86.83 695.94" stroke="hsl(228.5, 77.2%, 51.5%)" stroke-width="1.5"></path><path d="M89.43 497.25L362.11 534.87" stroke="hsl(228.5, 77.2%, 51.5%)" stroke-width="1.5"></path><path d="M246.15 682.84L246.15 682.84" stroke="hsl(228.5, 77.2%, 51.5%)" stroke-width="1.5"></path><path d="M246.15 682.84L342.43 673.63" stroke="hsl(228.5, 77.2%, 51.5%)" stroke-width="1.5"></path><path d="M246.15 682.84L209.12 562.26" stroke="hsl(228.5, 77.2%, 51.5%)" stroke-width="1.5"></path><path d="M246.15 682.84L65.15 709.51" stroke="hsl(228.5, 77.2%, 51.5%)" stroke-width="1.5"></path><path d="M246.15 682.84L362.11 534.87" stroke="hsl(228.5, 77.2%, 51.5%)" stroke-width="1.5"></path><path d="M682.5 388.64L682.5 388.64" stroke="hsl(228.5, 77.2%, 51.5%)" stroke-width="1.5"></path><path d="M682.5 388.64L663.91 502.17" stroke="hsl(228.5, 77.2%, 51.5%)" stroke-width="1.5"></path><path d="M682.5 388.64L834.55 349.89" stroke="hsl(228.5, 77.2%, 51.5%)" stroke-width="1.5"></path><path d="M682.5 388.64L826.99 492.65" stroke="hsl(228.5, 77.2%, 51.5%)" stroke-width="1.5"></path><path d="M1001.19 526.49L1001.19 526.49" stroke="hsl(228.5, 77.2%, 51.5%)" stroke-width="1.5"></path><path d="M1001.19 526.49L1098.01 499.7" stroke="hsl(228.5, 77.2%, 51.5%)" stroke-width="1.5"></path><path d="M1088.91 232.24L1088.91 232.24" stroke="hsl(228.5, 77.2%, 51.5%)" stroke-width="1.5"></path><path d="M1088.91 232.24L1006.09 261.51" stroke="hsl(228.5, 77.2%, 51.5%)" stroke-width="1.5"></path><path d="M1088.91 232.24L1089.11 343" stroke="hsl(228.5, 77.2%, 51.5%)" stroke-width="1.5"></path><path d="M1088.91 232.24L1153.03 86.12" stroke="hsl(228.5, 77.2%, 51.5%)" stroke-width="1.5"></path><path d="M1088.91 232.24L1272.61 237.57" stroke="hsl(228.5, 77.2%, 51.5%)" stroke-width="1.5"></path><path d="M1272.61 237.57L1272.61 237.57" stroke="hsl(228.5, 77.2%, 51.5%)" stroke-width="1.5"></path><path d="M1272.61 237.57L1402.26 232.99" stroke="hsl(228.5, 77.2%, 51.5%)" stroke-width="1.5"></path><path d="M1272.61 237.57L1261.34 96.97" stroke="hsl(228.5, 77.2%, 51.5%)" stroke-width="1.5"></path><path d="M1272.61 237.57L1290.53 400.72" stroke="hsl(228.5, 77.2%, 51.5%)" stroke-width="1.5"></path><path d="M1272.61 237.57L1153.03 86.12" stroke="hsl(228.5, 77.2%, 51.5%)" stroke-width="1.5"></path><path d="M1272.61 237.57L1089.11 343" stroke="hsl(228.5, 77.2%, 51.5%)" stroke-width="1.5"></path><path d="M1419.48 -43.03L1419.48 -43.03" stroke="hsl(228.5, 77.2%, 51.5%)" stroke-width="1.5"></path><path d="M1419.48 -43.03L1416.89 80.04" stroke="hsl(228.5, 77.2%, 51.5%)" stroke-width="1.5"></path><path d="M1419.48 -43.03L1295.54 -112.15" stroke="hsl(228.5, 77.2%, 51.5%)" stroke-width="1.5"></path><path d="M1419.48 -43.03L1553.07 -104.4" stroke="hsl(228.5, 77.2%, 51.5%)" stroke-width="1.5"></path><path d="M1558.17 694.45L1558.17 694.45" stroke="hsl(228.5, 77.2%, 51.5%)" stroke-width="1.5"></path><path d="M1558.17 694.45L1585.78 500.92" stroke="hsl(228.5, 77.2%, 51.5%)" stroke-width="1.5"></path><path d="M1558.17 694.45L1399.71 556.67" stroke="hsl(228.5, 77.2%, 51.5%)" stroke-width="1.5"></path><path d="M-39.56 505.72L-39.56 505.72" stroke="hsl(228.5, 77.2%, 51.5%)" stroke-width="1.5"></path><path d="M-39.56 505.72L-86.83 695.94" stroke="hsl(228.5, 77.2%, 51.5%)" stroke-width="1.5"></path><path d="M-86.83 695.94L-86.83 695.94" stroke="hsl(228.5, 77.2%, 51.5%)" stroke-width="1.5"></path><path d="M-86.83 695.94L65.15 709.51" stroke="hsl(228.5, 77.2%, 51.5%)" stroke-width="1.5"></path><path d="M-86.83 695.94L209.12 562.26" stroke="hsl(228.5, 77.2%, 51.5%)" stroke-width="1.5"></path><path d="M-86.83 695.94L246.15 682.84" stroke="hsl(228.5, 77.2%, 51.5%)" stroke-width="1.5"></path><path d="M65.15 709.51L65.15 709.51" stroke="hsl(228.5, 77.2%, 51.5%)" stroke-width="1.5"></path><path d="M65.15 709.51L209.12 562.26" stroke="hsl(228.5, 77.2%, 51.5%)" stroke-width="1.5"></path><path d="M65.15 709.51L-39.56 505.72" stroke="hsl(228.5, 77.2%, 51.5%)" stroke-width="1.5"></path><path d="M65.15 709.51L342.43 673.63" stroke="hsl(228.5, 77.2%, 51.5%)" stroke-width="1.5"></path><path d="M209.12 562.26L209.12 562.26" stroke="hsl(228.5, 77.2%, 51.5%)" stroke-width="1.5"></path><path d="M209.12 562.26L362.11 534.87" stroke="hsl(228.5, 77.2%, 51.5%)" stroke-width="1.5"></path><path d="M209.12 562.26L342.43 673.63" stroke="hsl(228.5, 77.2%, 51.5%)" stroke-width="1.5"></path><path d="M362.11 534.87L362.11 534.87" stroke="hsl(228.5, 77.2%, 51.5%)" stroke-width="1.5"></path><path d="M362.11 534.87L342.43 673.63" stroke="hsl(228.5, 77.2%, 51.5%)" stroke-width="1.5"></path><path d="M362.11 534.87L514.93 507.05" stroke="hsl(228.5, 77.2%, 51.5%)" stroke-width="1.5"></path><path d="M342.43 673.63L342.43 673.63" stroke="hsl(228.5, 77.2%, 51.5%)" stroke-width="1.5"></path><path d="M342.43 673.63L523.2 695.22" stroke="hsl(228.5, 77.2%, 51.5%)" stroke-width="1.5"></path><path d="M514.93 507.05L514.93 507.05" stroke="hsl(228.5, 77.2%, 51.5%)" stroke-width="1.5"></path><path d="M514.93 507.05L663.91 502.17" stroke="hsl(228.5, 77.2%, 51.5%)" stroke-width="1.5"></path><path d="M523.2 695.22L523.2 695.22" stroke="hsl(228.5, 77.2%, 51.5%)" stroke-width="1.5"></path><path d="M523.2 695.22L645.06 679.52" stroke="hsl(228.5, 77.2%, 51.5%)" stroke-width="1.5"></path><path d="M523.2 695.22L514.93 507.05" stroke="hsl(228.5, 77.2%, 51.5%)" stroke-width="1.5"></path><path d="M663.91 502.17L663.91 502.17" stroke="hsl(228.5, 77.2%, 51.5%)" stroke-width="1.5"></path><path d="M645.06 679.52L645.06 679.52" stroke="hsl(228.5, 77.2%, 51.5%)" stroke-width="1.5"></path><path d="M645.06 679.52L790.03 689.08" stroke="hsl(228.5, 77.2%, 51.5%)" stroke-width="1.5"></path><path d="M645.06 679.52L663.91 502.17" stroke="hsl(228.5, 77.2%, 51.5%)" stroke-width="1.5"></path><path d="M645.06 679.52L514.93 507.05" stroke="hsl(228.5, 77.2%, 51.5%)" stroke-width="1.5"></path><path d="M645.06 679.52L826.99 492.65" stroke="hsl(228.5, 77.2%, 51.5%)" stroke-width="1.5"></path><path d="M834.55 349.89L834.55 349.89" stroke="hsl(228.5, 77.2%, 51.5%)" stroke-width="1.5"></path><path d="M834.55 349.89L826.99 492.65" stroke="hsl(228.5, 77.2%, 51.5%)" stroke-width="1.5"></path><path d="M834.55 349.89L1006.09 261.51" stroke="hsl(228.5, 77.2%, 51.5%)" stroke-width="1.5"></path><path d="M834.55 349.89L663.91 502.17" stroke="hsl(228.5, 77.2%, 51.5%)" stroke-width="1.5"></path><path d="M834.55 349.89L1001.19 526.49" stroke="hsl(228.5, 77.2%, 51.5%)" stroke-width="1.5"></path><path d="M834.55 349.89L1089.11 343" stroke="hsl(228.5, 77.2%, 51.5%)" stroke-width="1.5"></path><path d="M826.99 492.65L826.99 492.65" stroke="hsl(228.5, 77.2%, 51.5%)" stroke-width="1.5"></path><path d="M826.99 492.65L663.91 502.17" stroke="hsl(228.5, 77.2%, 51.5%)" stroke-width="1.5"></path><path d="M826.99 492.65L1001.19 526.49" stroke="hsl(228.5, 77.2%, 51.5%)" stroke-width="1.5"></path><path d="M790.03 689.08L790.03 689.08" stroke="hsl(228.5, 77.2%, 51.5%)" stroke-width="1.5"></path><path d="M790.03 689.08L826.99 492.65" stroke="hsl(228.5, 77.2%, 51.5%)" stroke-width="1.5"></path><path d="M790.03 689.08L663.91 502.17" stroke="hsl(228.5, 77.2%, 51.5%)" stroke-width="1.5"></path><path d="M790.03 689.08L1001.19 526.49" stroke="hsl(228.5, 77.2%, 51.5%)" stroke-width="1.5"></path><path d="M790.03 689.08L523.2 695.22" stroke="hsl(228.5, 77.2%, 51.5%)" stroke-width="1.5"></path><path d="M1006.09 261.51L1006.09 261.51" stroke="hsl(228.5, 77.2%, 51.5%)" stroke-width="1.5"></path><path d="M1006.09 261.51L1089.11 343" stroke="hsl(228.5, 77.2%, 51.5%)" stroke-width="1.5"></path><path d="M1006.09 261.51L1153.03 86.12" stroke="hsl(228.5, 77.2%, 51.5%)" stroke-width="1.5"></path><path d="M1006.09 261.51L1098.01 499.7" stroke="hsl(228.5, 77.2%, 51.5%)" stroke-width="1.5"></path><path d="M1153.03 86.12L1153.03 86.12" stroke="hsl(228.5, 77.2%, 51.5%)" stroke-width="1.5"></path><path d="M1153.03 86.12L1261.34 96.97" stroke="hsl(228.5, 77.2%, 51.5%)" stroke-width="1.5"></path><path d="M1089.11 343L1089.11 343" stroke="hsl(228.5, 77.2%, 51.5%)" stroke-width="1.5"></path><path d="M1089.11 343L1098.01 499.7" stroke="hsl(228.5, 77.2%, 51.5%)" stroke-width="1.5"></path><path d="M1098.01 499.7L1098.01 499.7" stroke="hsl(228.5, 77.2%, 51.5%)" stroke-width="1.5"></path><path d="M1098.01 499.7L1244.57 550.98" stroke="hsl(228.5, 77.2%, 51.5%)" stroke-width="1.5"></path><path d="M1098.01 499.7L1134.16 683.94" stroke="hsl(228.5, 77.2%, 51.5%)" stroke-width="1.5"></path><path d="M1098.01 499.7L1290.53 400.72" stroke="hsl(228.5, 77.2%, 51.5%)" stroke-width="1.5"></path><path d="M1134.16 683.94L1134.16 683.94" stroke="hsl(228.5, 77.2%, 51.5%)" stroke-width="1.5"></path><path d="M1134.16 683.94L1290.35 673.52" stroke="hsl(228.5, 77.2%, 51.5%)" stroke-width="1.5"></path><path d="M1134.16 683.94L1244.57 550.98" stroke="hsl(228.5, 77.2%, 51.5%)" stroke-width="1.5"></path><path d="M1134.16 683.94L1001.19 526.49" stroke="hsl(228.5, 77.2%, 51.5%)" stroke-width="1.5"></path><path d="M1134.16 683.94L1399.71 556.67" stroke="hsl(228.5, 77.2%, 51.5%)" stroke-width="1.5"></path><path d="M1134.16 683.94L1290.53 400.72" stroke="hsl(228.5, 77.2%, 51.5%)" stroke-width="1.5"></path><path d="M1295.54 -112.15L1295.54 -112.15" stroke="hsl(228.5, 77.2%, 51.5%)" stroke-width="1.5"></path><path d="M1295.54 -112.15L1261.34 96.97" stroke="hsl(228.5, 77.2%, 51.5%)" stroke-width="1.5"></path><path d="M1295.54 -112.15L1416.89 80.04" stroke="hsl(228.5, 77.2%, 51.5%)" stroke-width="1.5"></path><path d="M1261.34 96.97L1261.34 96.97" stroke="hsl(228.5, 77.2%, 51.5%)" stroke-width="1.5"></path><path d="M1261.34 96.97L1416.89 80.04" stroke="hsl(228.5, 77.2%, 51.5%)" stroke-width="1.5"></path><path d="M1290.53 400.72L1290.53 400.72" stroke="hsl(228.5, 77.2%, 51.5%)" stroke-width="1.5"></path><path d="M1290.53 400.72L1244.57 550.98" stroke="hsl(228.5, 77.2%, 51.5%)" stroke-width="1.5"></path><path d="M1290.53 400.72L1449.03 409.97" stroke="hsl(228.5, 77.2%, 51.5%)" stroke-width="1.5"></path><path d="M1290.53 400.72L1399.71 556.67" stroke="hsl(228.5, 77.2%, 51.5%)" stroke-width="1.5"></path><path d="M1244.57 550.98L1244.57 550.98" stroke="hsl(228.5, 77.2%, 51.5%)" stroke-width="1.5"></path><path d="M1244.57 550.98L1290.35 673.52" stroke="hsl(228.5, 77.2%, 51.5%)" stroke-width="1.5"></path><path d="M1244.57 550.98L1399.71 556.67" stroke="hsl(228.5, 77.2%, 51.5%)" stroke-width="1.5"></path><path d="M1290.35 673.52L1290.35 673.52" stroke="hsl(228.5, 77.2%, 51.5%)" stroke-width="1.5"></path><path d="M1290.35 673.52L1399.71 556.67" stroke="hsl(228.5, 77.2%, 51.5%)" stroke-width="1.5"></path><path d="M1290.35 673.52L1098.01 499.7" stroke="hsl(228.5, 77.2%, 51.5%)" stroke-width="1.5"></path><path d="M1416.89 80.04L1416.89 80.04" stroke="hsl(228.5, 77.2%, 51.5%)" stroke-width="1.5"></path><path d="M1416.89 80.04L1545.35 85.74" stroke="hsl(228.5, 77.2%, 51.5%)" stroke-width="1.5"></path><path d="M1416.89 80.04L1402.26 232.99" stroke="hsl(228.5, 77.2%, 51.5%)" stroke-width="1.5"></path><path d="M1416.89 80.04L1272.61 237.57" stroke="hsl(228.5, 77.2%, 51.5%)" stroke-width="1.5"></path><path d="M1402.26 232.99L1402.26 232.99" stroke="hsl(228.5, 77.2%, 51.5%)" stroke-width="1.5"></path><path d="M1402.26 232.99L1541.47 258.09" stroke="hsl(228.5, 77.2%, 51.5%)" stroke-width="1.5"></path><path d="M1402.26 232.99L1449.03 409.97" stroke="hsl(228.5, 77.2%, 51.5%)" stroke-width="1.5"></path><path d="M1402.26 232.99L1261.34 96.97" stroke="hsl(228.5, 77.2%, 51.5%)" stroke-width="1.5"></path><path d="M1449.03 409.97L1449.03 409.97" stroke="hsl(228.5, 77.2%, 51.5%)" stroke-width="1.5"></path><path d="M1449.03 409.97L1399.71 556.67" stroke="hsl(228.5, 77.2%, 51.5%)" stroke-width="1.5"></path><path d="M1449.03 409.97L1585.78 500.92" stroke="hsl(228.5, 77.2%, 51.5%)" stroke-width="1.5"></path><path d="M1449.03 409.97L1541.47 258.09" stroke="hsl(228.5, 77.2%, 51.5%)" stroke-width="1.5"></path><path d="M1399.71 556.67L1399.71 556.67" stroke="hsl(228.5, 77.2%, 51.5%)" stroke-width="1.5"></path><path d="M1399.71 556.67L1585.78 500.92" stroke="hsl(228.5, 77.2%, 51.5%)" stroke-width="1.5"></path><path d="M1553.07 -104.4L1553.07 -104.4" stroke="hsl(228.5, 77.2%, 51.5%)" stroke-width="1.5"></path><path d="M1553.07 -104.4L1545.35 85.74" stroke="hsl(228.5, 77.2%, 51.5%)" stroke-width="1.5"></path><path d="M1553.07 -104.4L1416.89 80.04" stroke="hsl(228.5, 77.2%, 51.5%)" stroke-width="1.5"></path><path d="M1553.07 -104.4L1295.54 -112.15" stroke="hsl(228.5, 77.2%, 51.5%)" stroke-width="1.5"></path><path d="M1553.07 -104.4L1261.34 96.97" stroke="hsl(228.5, 77.2%, 51.5%)" stroke-width="1.5"></path><path d="M1545.35 85.74L1545.35 85.74" stroke="hsl(228.5, 77.2%, 51.5%)" stroke-width="1.5"></path><path d="M1545.35 85.74L1541.47 258.09" stroke="hsl(228.5, 77.2%, 51.5%)" stroke-width="1.5"></path><path d="M1545.35 85.74L1419.48 -43.03" stroke="hsl(228.5, 77.2%, 51.5%)" stroke-width="1.5"></path><path d="M1545.35 85.74L1402.26 232.99" stroke="hsl(228.5, 77.2%, 51.5%)" stroke-width="1.5"></path><path d="M1545.35 85.74L1261.34 96.97" stroke="hsl(228.5, 77.2%, 51.5%)" stroke-width="1.5"></path><path d="M1541.47 258.09L1541.47 258.09" stroke="hsl(228.5, 77.2%, 51.5%)" stroke-width="1.5"></path><path d="M1541.47 258.09L1416.89 80.04" stroke="hsl(228.5, 77.2%, 51.5%)" stroke-width="1.5"></path><path d="M1541.47 258.09L1585.78 500.92" stroke="hsl(228.5, 77.2%, 51.5%)" stroke-width="1.5"></path><path d="M1541.47 258.09L1272.61 237.57" stroke="hsl(228.5, 77.2%, 51.5%)" stroke-width="1.5"></path><path d="M1585.78 500.92L1585.78 500.92" stroke="hsl(228.5, 77.2%, 51.5%)" stroke-width="1.5"></path><path d="M1585.78 500.92L1290.53 400.72" stroke="hsl(228.5, 77.2%, 51.5%)" stroke-width="1.5"></path><path d="M1585.78 500.92L1402.26 232.99" stroke="hsl(228.5, 77.2%, 51.5%)" stroke-width="1.5"></path><circle r="25" cx="89.43" cy="497.25" fill="url(&quot;#SvgjsRadialGradient1001&quot;)"></circle><circle r="25" cx="246.15" cy="682.84" fill="url(&quot;#SvgjsRadialGradient1001&quot;)"></circle><circle r="25" cx="682.5" cy="388.64" fill="url(&quot;#SvgjsRadialGradient1001&quot;)"></circle><circle r="25" cx="1001.19" cy="526.49" fill="url(&quot;#SvgjsRadialGradient1001&quot;)"></circle><circle r="25" cx="1088.91" cy="232.24" fill="url(&quot;#SvgjsRadialGradient1001&quot;)"></circle><circle r="25" cx="1272.61" cy="237.57" fill="url(&quot;#SvgjsRadialGradient1001&quot;)"></circle><circle r="25" cx="1419.48" cy="-43.03" fill="url(&quot;#SvgjsRadialGradient1001&quot;)"></circle><circle r="25" cx="1558.17" cy="694.45" fill="url(&quot;#SvgjsRadialGradient1001&quot;)"></circle><circle r="5" cx="-39.56" cy="505.72" fill="#8b9ad9"></circle><circle r="5" cx="-86.83" cy="695.94" fill="#8b9ad9"></circle><circle r="5" cx="65.15" cy="709.51" fill="#8b9ad9"></circle><circle r="5" cx="209.12" cy="562.26" fill="#8b9ad9"></circle><circle r="5" cx="362.11" cy="534.87" fill="#8b9ad9"></circle><circle r="5" cx="342.43" cy="673.63" fill="#8b9ad9"></circle><circle r="5" cx="514.93" cy="507.05" fill="#8b9ad9"></circle><circle r="5" cx="523.2" cy="695.22" fill="#8b9ad9"></circle><circle r="5" cx="663.91" cy="502.17" fill="#8b9ad9"></circle><circle r="5" cx="645.06" cy="679.52" fill="#8b9ad9"></circle><circle r="5" cx="834.55" cy="349.89" fill="#8b9ad9"></circle><circle r="5" cx="826.99" cy="492.65" fill="#8b9ad9"></circle><circle r="5" cx="790.03" cy="689.08" fill="#8b9ad9"></circle><circle r="5" cx="1006.09" cy="261.51" fill="#8b9ad9"></circle><circle r="5" cx="1153.03" cy="86.12" fill="#8b9ad9"></circle><circle r="5" cx="1089.11" cy="343" fill="#8b9ad9"></circle><circle r="5" cx="1098.01" cy="499.7" fill="#8b9ad9"></circle><circle r="5" cx="1134.16" cy="683.94" fill="#8b9ad9"></circle><circle r="5" cx="1295.54" cy="-112.15" fill="#8b9ad9"></circle><circle r="5" cx="1261.34" cy="96.97" fill="#8b9ad9"></circle><circle r="5" cx="1290.53" cy="400.72" fill="#8b9ad9"></circle><circle r="5" cx="1244.57" cy="550.98" fill="#8b9ad9"></circle><circle r="5" cx="1290.35" cy="673.52" fill="#8b9ad9"></circle><circle r="5" cx="1416.89" cy="80.04" fill="#8b9ad9"></circle><circle r="5" cx="1402.26" cy="232.99" fill="#8b9ad9"></circle><circle r="5" cx="1449.03" cy="409.97" fill="#8b9ad9"></circle><circle r="5" cx="1399.71" cy="556.67" fill="#8b9ad9"></circle><circle r="5" cx="1553.07" cy="-104.4" fill="#8b9ad9"></circle><circle r="5" cx="1545.35" cy="85.74" fill="#8b9ad9"></circle><circle r="5" cx="1541.47" cy="258.09" fill="#8b9ad9"></circle><circle r="5" cx="1585.78" cy="500.92" fill="#8b9ad9"></circle></g><defs><mask id="SvgjsMask1000"><rect width="1440" height="560" fill="#ffffff"></rect></mask><radialGradient id="SvgjsRadialGradient1001"><stop stop-color="#ffffff" offset="0.1"></stop><stop stop-color="#1735b3" offset="0.2"></stop><stop stop-color="rgba(23, 53, 179, 0)" offset="1"></stop></radialGradient></defs></svg>