<svg xmlns="http://www.w3.org/2000/svg" version="1.1" xmlns:xlink="http://www.w3.org/1999/xlink" xmlns:svgjs="http://svgjs.dev/svgjs" width="1440" height="250" preserveAspectRatio="none" viewBox="0 0 1440 250"><g mask="url(&quot;#SvgjsMask1000&quot;)" fill="none"><rect width="1440" height="250" x="0" y="0" fill="#0e2a47"></rect><path d="M16 250L266 0L554 0L304 250z" fill="url(&quot;#SvgjsLinearGradient1001&quot;)"></path><path d="M270.6 250L520.6 0L610.6 0L360.6 250z" fill="url(&quot;#SvgjsLinearGradient1001&quot;)"></path><path d="M513.2 250L763.2 0L872.7 0L622.7 250z" fill="url(&quot;#SvgjsLinearGradient1001&quot;)"></path><path d="M755.8000000000001 250L1005.8000000000001 0L1224.8000000000002 0L974.8000000000001 250z" fill="url(&quot;#SvgjsLinearGradient1001&quot;)"></path><path d="M1430 250L1180 0L905.5 0L1155.5 250z" fill="url(&quot;#SvgjsLinearGradient1002&quot;)"></path><path d="M1179.4 250L929.4000000000001 0L708.9000000000001 0L958.9000000000001 250z" fill="url(&quot;#SvgjsLinearGradient1002&quot;)"></path><path d="M956.8 250L706.8 0L450.29999999999995 0L700.3 250z" fill="url(&quot;#SvgjsLinearGradient1002&quot;)"></path><path d="M693.1999999999999 250L443.19999999999993 0L341.19999999999993 0L591.1999999999999 250z" fill="url(&quot;#SvgjsLinearGradient1002&quot;)"></path><path d="M1228.3729308992292 250L1440 38.37293089922912L1440 250z" fill="url(&quot;#SvgjsLinearGradient1001&quot;)"></path><path d="M0 250L211.62706910077088 250L 0 38.37293089922912z" fill="url(&quot;#SvgjsLinearGradient1002&quot;)"></path></g><defs><mask id="SvgjsMask1000"><rect width="1440" height="250" fill="#ffffff"></rect></mask><linearGradient x1="0%" y1="100%" x2="100%" y2="0%" id="SvgjsLinearGradient1001"><stop stop-color="rgba(15, 70, 185, 0.2)" offset="0"></stop><stop stop-opacity="0" stop-color="rgba(15, 70, 185, 0.2)" offset="0.66"></stop></linearGradient><linearGradient x1="100%" y1="100%" x2="0%" y2="0%" id="SvgjsLinearGradient1002"><stop stop-color="rgba(15, 70, 185, 0.2)" offset="0"></stop><stop stop-opacity="0" stop-color="rgba(15, 70, 185, 0.2)" offset="0.66"></stop></linearGradient></defs></svg>